# xmcd
#
# Track frame offsets:
#	150
#	13497
#	34641
#	46726
#	70331
#	90190
#	117340
#	149941
#	162197
#	172401
#	186931
#
# Disc length: 2963 seconds
#
# Revision: 60
# Processed by: cddbd v1.5.2PL0 Copyright (c) Steve Scherf et al.
# Submitted via: Jack! The Knife 20 Magnifico
#
DISCID=9e0b910b
DTITLE=Velvet Underground - The Velvet Underground and Nico
DYEAR=1967
DGENRE=Avantgarde
TTITLE0=Sunday Morning
TTITLE1=I'm Waiting For The Man
TTITLE2=Femme Fatale
TTITLE3=Venus In Furs
TTITLE4=Run Run Run
TTITLE5=All Tomorrow's Parties
TTITLE6=Heroin
TTITLE7=There She Goes Again
TTITLE8=I'll Be Your Mirror
TTITLE9=The Black Angel's Death Song
TTITLE10=European Son
EXTD=Andy Warhol and Tom Wilson
EXTT0=Reed, Cale
EXTT1=Lou Reed
EXTT2=Lou Reed
EXTT3=Lou Reed
EXTT4=Lou Reed
EXTT5=Lou Reed
EXTT6=Lou Reed
EXTT7=Lou Reed
EXTT8=Lou Reed
EXTT9=Reed, Cale
EXTT10=Reed, Cale, Morrison, Tucker
PLAYORDER=
